# xmcd CD database file
#
# Track frame offsets:
#	150
#	14165
#	32052
#	50821
#	81047
#	97881
#	127150
#	152011
#	174943
#	187783
#
# Disc length: 2722 seconds
#
# Revision: 11
# Processed by: cddbd v1.5.2PL0 Copyright (c) Steve Scherf et al.
# Submitted via: CDex 1.51
#
DISCID=790aa00a
DTITLE=Les gosses de la rue - Les gosses de la rue
DYEAR=2008
DGENRE=Jazz
TTITLE0=Rythme futur
TTITLE1=Le fils du facteur
TTITLE2=Amsterdam
TTITLE3=For Sephora
TTITLE4=Noto swing
TTITLE5=Valse a Margaux
TTITLE6=Minor swing
TTITLE7=Legend
TTITLE8=Ungarom
TTITLE9=Hora ca la Caval
EXTD=YEAR: 2008
EXTT0=
EXTT1=
EXTT2=
EXTT3=
EXTT4=
EXTT5=
EXTT6=
EXTT7=
EXTT8=
EXTT9=
PLAYORDER=
